<mxfile host="app.diagrams.net" modified="2024-05-29T02:01:15.341Z" agent="Mozilla/5.0 (Windows NT 10.0; Win64; x64) AppleWebKit/537.36 (KHTML, like Gecko) Chrome/123.0.0.0 Safari/537.36" etag="Iu_28A8qs4iHVyvbHGsk" version="24.4.9" type="github">
  <diagram id="C5RBs43oDa-KdzZeNtuy" name="Page-1">
    <mxGraphModel dx="598" dy="818" grid="1" gridSize="10" guides="1" tooltips="1" connect="1" arrows="1" fold="1" page="1" pageScale="1" pageWidth="827" pageHeight="1169" math="0" shadow="0">
      <root>
        <mxCell id="WIyWlLk6GJQsqaUBKTNV-0" />
        <mxCell id="WIyWlLk6GJQsqaUBKTNV-1" parent="WIyWlLk6GJQsqaUBKTNV-0" />
        <mxCell id="sczyDCgdXhJXsju84fPX-8" value="Element" style="swimlane;fontStyle=1;align=center;verticalAlign=top;childLayout=stackLayout;horizontal=1;startSize=26;horizontalStack=0;resizeParent=1;resizeLast=0;collapsible=1;marginBottom=0;rounded=0;shadow=0;strokeWidth=1;" vertex="1" parent="WIyWlLk6GJQsqaUBKTNV-1">
          <mxGeometry x="80" width="258" height="208" as="geometry">
            <mxRectangle x="230" y="140" width="160" height="26" as="alternateBounds" />
          </mxGeometry>
        </mxCell>
        <mxCell id="sczyDCgdXhJXsju84fPX-10" value="-x: double &#xa;-y: double &#xa;-ChieuDai: double &#xa;-ChieuRong: double &#xa;" style="text;align=left;verticalAlign=top;spacingLeft=4;spacingRight=4;overflow=hidden;rotatable=0;points=[[0,0.5],[1,0.5]];portConstraint=eastwest;rounded=0;shadow=0;html=0;" vertex="1" parent="sczyDCgdXhJXsju84fPX-8">
          <mxGeometry y="26" width="258" height="74" as="geometry" />
        </mxCell>
        <mxCell id="sczyDCgdXhJXsju84fPX-12" value="" style="line;html=1;strokeWidth=1;align=left;verticalAlign=middle;spacingTop=-1;spacingLeft=3;spacingRight=3;rotatable=0;labelPosition=right;points=[];portConstraint=eastwest;" vertex="1" parent="sczyDCgdXhJXsju84fPX-8">
          <mxGeometry y="100" width="258" height="8" as="geometry" />
        </mxCell>
        <mxCell id="sczyDCgdXhJXsju84fPX-20" value="+Element(x: double, y:double, width: double,&amp;nbsp;&lt;div&gt;height: double, background: Color)&lt;/div&gt;&lt;div&gt;+ virtual void Nhap()&lt;/div&gt;&lt;div&gt;+virtual int getMauNen()&lt;/div&gt;&lt;div&gt;+virtual int getMauChu()&lt;/div&gt;&lt;div&gt;&lt;br&gt;&lt;/div&gt;" style="text;html=1;align=center;verticalAlign=middle;resizable=0;points=[];autosize=1;strokeColor=none;fillColor=none;" vertex="1" parent="sczyDCgdXhJXsju84fPX-8">
          <mxGeometry y="108" width="258" height="100" as="geometry" />
        </mxCell>
        <mxCell id="sczyDCgdXhJXsju84fPX-15" value="Color&amp;nbsp;" style="swimlane;fontStyle=1;align=center;verticalAlign=top;childLayout=stackLayout;horizontal=1;startSize=26;horizontalStack=0;resizeParent=1;resizeParentMax=0;resizeLast=0;collapsible=1;marginBottom=0;whiteSpace=wrap;html=1;" vertex="1" parent="WIyWlLk6GJQsqaUBKTNV-1">
          <mxGeometry x="450" y="10" width="160" height="200" as="geometry" />
        </mxCell>
        <mxCell id="sczyDCgdXhJXsju84fPX-21" value="- red : int&amp;nbsp;&lt;div&gt;-green: int&amp;nbsp;&lt;/div&gt;&lt;div&gt;-blue: int&amp;nbsp;&lt;/div&gt;" style="text;html=1;align=center;verticalAlign=middle;resizable=0;points=[];autosize=1;strokeColor=none;fillColor=none;" vertex="1" parent="sczyDCgdXhJXsju84fPX-15">
          <mxGeometry y="26" width="160" height="60" as="geometry" />
        </mxCell>
        <mxCell id="sczyDCgdXhJXsju84fPX-17" value="" style="line;strokeWidth=1;fillColor=none;align=left;verticalAlign=middle;spacingTop=-1;spacingLeft=3;spacingRight=3;rotatable=0;labelPosition=right;points=[];portConstraint=eastwest;strokeColor=inherit;" vertex="1" parent="sczyDCgdXhJXsju84fPX-15">
          <mxGeometry y="86" width="160" height="54" as="geometry" />
        </mxCell>
        <mxCell id="sczyDCgdXhJXsju84fPX-18" value="+ Color(r: int , g: int , b: int)&amp;nbsp;&lt;div&gt;&lt;br&gt;&lt;/div&gt;" style="text;strokeColor=none;fillColor=none;align=left;verticalAlign=top;spacingLeft=4;spacingRight=4;overflow=hidden;rotatable=0;points=[[0,0.5],[1,0.5]];portConstraint=eastwest;whiteSpace=wrap;html=1;" vertex="1" parent="sczyDCgdXhJXsju84fPX-15">
          <mxGeometry y="140" width="160" height="60" as="geometry" />
        </mxCell>
        <mxCell id="sczyDCgdXhJXsju84fPX-37" value="" style="rounded=0;orthogonalLoop=1;jettySize=auto;html=1;" edge="1" parent="WIyWlLk6GJQsqaUBKTNV-1" source="sczyDCgdXhJXsju84fPX-22">
          <mxGeometry relative="1" as="geometry">
            <mxPoint x="240" y="210" as="targetPoint" />
          </mxGeometry>
        </mxCell>
        <mxCell id="sczyDCgdXhJXsju84fPX-22" value="Label " style="swimlane;fontStyle=0;align=center;verticalAlign=top;childLayout=stackLayout;horizontal=1;startSize=26;horizontalStack=0;resizeParent=1;resizeLast=0;collapsible=1;marginBottom=0;rounded=0;shadow=0;strokeWidth=1;" vertex="1" parent="WIyWlLk6GJQsqaUBKTNV-1">
          <mxGeometry x="350" y="360" width="233" height="190" as="geometry">
            <mxRectangle x="230" y="140" width="160" height="26" as="alternateBounds" />
          </mxGeometry>
        </mxCell>
        <mxCell id="sczyDCgdXhJXsju84fPX-23" value="-Text: string  &#xa;-MauChu: Color &#xa;-MauNen: Color" style="text;align=left;verticalAlign=top;spacingLeft=4;spacingRight=4;overflow=hidden;rotatable=0;points=[[0,0.5],[1,0.5]];portConstraint=eastwest;" vertex="1" parent="sczyDCgdXhJXsju84fPX-22">
          <mxGeometry y="26" width="233" height="64" as="geometry" />
        </mxCell>
        <mxCell id="sczyDCgdXhJXsju84fPX-26" value="" style="line;html=1;strokeWidth=1;align=left;verticalAlign=middle;spacingTop=-1;spacingLeft=3;spacingRight=3;rotatable=0;labelPosition=right;points=[];portConstraint=eastwest;" vertex="1" parent="sczyDCgdXhJXsju84fPX-22">
          <mxGeometry y="90" width="233" height="8" as="geometry" />
        </mxCell>
        <mxCell id="sczyDCgdXhJXsju84fPX-43" value="&lt;div&gt;+Label(text: string, chu: Color, nen: color)&lt;/div&gt;+void Nhap()&lt;br&gt;+int getMauNen()&lt;br&gt;+int getMauChu()" style="text;html=1;align=center;verticalAlign=middle;resizable=0;points=[];autosize=1;strokeColor=none;fillColor=none;" vertex="1" parent="sczyDCgdXhJXsju84fPX-22">
          <mxGeometry y="98" width="233" height="70" as="geometry" />
        </mxCell>
        <mxCell id="sczyDCgdXhJXsju84fPX-32" value="Button" style="swimlane;fontStyle=0;align=center;verticalAlign=top;childLayout=stackLayout;horizontal=1;startSize=26;horizontalStack=0;resizeParent=1;resizeLast=0;collapsible=1;marginBottom=0;rounded=0;shadow=0;strokeWidth=1;" vertex="1" parent="WIyWlLk6GJQsqaUBKTNV-1">
          <mxGeometry x="10" y="360" width="313" height="178" as="geometry">
            <mxRectangle x="230" y="140" width="160" height="26" as="alternateBounds" />
          </mxGeometry>
        </mxCell>
        <mxCell id="sczyDCgdXhJXsju84fPX-33" value="-Text: string &#xa;-MauChu: Color &#xa;-MauNen: Color &#xa;-Hinh: string " style="text;align=left;verticalAlign=top;spacingLeft=4;spacingRight=4;overflow=hidden;rotatable=0;points=[[0,0.5],[1,0.5]];portConstraint=eastwest;" vertex="1" parent="sczyDCgdXhJXsju84fPX-32">
          <mxGeometry y="26" width="313" height="74" as="geometry" />
        </mxCell>
        <mxCell id="sczyDCgdXhJXsju84fPX-34" value="" style="line;html=1;strokeWidth=1;align=left;verticalAlign=middle;spacingTop=-1;spacingLeft=3;spacingRight=3;rotatable=0;labelPosition=right;points=[];portConstraint=eastwest;" vertex="1" parent="sczyDCgdXhJXsju84fPX-32">
          <mxGeometry y="100" width="313" height="8" as="geometry" />
        </mxCell>
        <mxCell id="sczyDCgdXhJXsju84fPX-41" value="+Button(text: string, chu: Color, nen: Color, hinh: string)&lt;div&gt;+void Nhap()&lt;br&gt;+int getMauNen()&lt;br&gt;+int getMauChu()&lt;/div&gt;" style="text;html=1;align=center;verticalAlign=middle;resizable=0;points=[];autosize=1;strokeColor=none;fillColor=none;" vertex="1" parent="sczyDCgdXhJXsju84fPX-32">
          <mxGeometry y="108" width="313" height="70" as="geometry" />
        </mxCell>
        <mxCell id="sczyDCgdXhJXsju84fPX-38" style="rounded=0;orthogonalLoop=1;jettySize=auto;html=1;" edge="1" parent="WIyWlLk6GJQsqaUBKTNV-1" source="sczyDCgdXhJXsju84fPX-32">
          <mxGeometry relative="1" as="geometry">
            <mxPoint x="150" y="210" as="targetPoint" />
          </mxGeometry>
        </mxCell>
      </root>
    </mxGraphModel>
  </diagram>
</mxfile>
